G04 MADE WITH FRITZING*
G04 WWW.FRITZING.ORG*
G04 DOUBLE SIDED*
G04 HOLES PLATED*
G04 CONTOUR ON CENTER OF CONTOUR VECTOR*
%ASAXBY*%
%FSLAX23Y23*%
%MOIN*%
%OFA0B0*%
%SFA1.0B1.0*%
%ADD10C,0.039370*%
%ADD11C,0.075000*%
%ADD12C,0.024000*%
%LNCOPPER1*%
G90*
G70*
G54D10*
X1454Y172D03*
X1554Y772D03*
X1454Y772D03*
X1354Y772D03*
X1354Y172D03*
X1454Y672D03*
X1454Y272D03*
X954Y172D03*
X1055Y773D03*
X954Y772D03*
X854Y772D03*
X854Y172D03*
X954Y672D03*
X954Y272D03*
G54D11*
X1454Y672D03*
X1454Y272D03*
X954Y672D03*
X954Y272D03*
G54D10*
X154Y172D03*
X254Y172D03*
X154Y772D03*
X254Y772D03*
X354Y772D03*
X454Y772D03*
G54D12*
X1354Y753D02*
X1354Y191D01*
D02*
X854Y753D02*
X854Y191D01*
D02*
X954Y191D02*
X954Y253D01*
D02*
X1454Y191D02*
X1454Y253D01*
D02*
X967Y185D02*
X1053Y273D01*
D02*
X1053Y273D02*
X1055Y754D01*
D02*
X1454Y753D02*
X1454Y691D01*
D02*
X954Y753D02*
X954Y691D01*
D02*
X1554Y273D02*
X1554Y753D01*
D02*
X1467Y185D02*
X1554Y273D01*
D02*
X154Y753D02*
X154Y191D01*
D02*
X254Y753D02*
X254Y191D01*
D02*
X53Y171D02*
X135Y172D01*
D02*
X354Y871D02*
X53Y871D01*
D02*
X53Y871D02*
X53Y171D01*
D02*
X354Y791D02*
X354Y871D01*
D02*
X354Y671D02*
X354Y272D01*
D02*
X454Y671D02*
X354Y671D01*
D02*
X454Y753D02*
X454Y671D01*
D02*
X354Y272D02*
X267Y185D01*
G04 End of Copper1*
M02*