; NON-PLATED HOLES START AT T1
; THROUGH (PLATED) HOLES START AT T100
M48
INCH
T100C0.015748
T101C0.035000
%
T100
X002535Y007718
X009535Y002718
X014535Y006718
X001535Y007718
X002535Y001718
X001535Y001718
X013535Y007718
X009535Y007718
X013535Y001718
X009535Y001718
X003535Y007718
X014535Y002718
X009535Y006718
X015535Y007718
X014535Y007718
X008535Y007718
X014535Y001718
X008535Y001718
X004535Y007718
X010551Y007727
T101
X014535Y002718
X009535Y006718
X009535Y002718
X014535Y006718
T00
M30
